<svg width="24" height="24" viewBox="0 0 24 24" fill="none" xmlns="http://www.w3.org/2000/svg">
<g id="fi-rr-clip" clip-path="url(#clip0_250_3882)">
<path id="Vector" d="M22.9498 9.60116C22.7623 9.41369 22.5079 9.30838 22.2428 9.30838C21.9776 9.30838 21.7233 9.41369 21.5358 9.60116L10.6438 20.5402C10.1795 21.0045 9.62829 21.3729 9.02164 21.6242C8.41499 21.8755 7.76478 22.0049 7.10813 22.005C5.78197 22.0051 4.51008 21.4783 3.57228 20.5407C2.63447 19.603 2.10757 18.3312 2.10747 17.005C2.10738 15.6789 2.63411 14.407 3.57178 13.4692L14.1208 2.87716C14.6849 2.32205 15.4455 2.01233 16.2369 2.01546C17.0283 2.01859 17.7864 2.33432 18.3461 2.89387C18.9058 3.45342 19.2217 4.21146 19.225 5.00287C19.2283 5.79428 18.9188 6.55494 18.3638 7.11916L7.81478 17.7112C7.62453 17.8934 7.37124 17.9952 7.10778 17.9952C6.84431 17.9952 6.59103 17.8934 6.40078 17.7112C6.21331 17.5236 6.10799 17.2693 6.10799 17.0042C6.10799 16.739 6.21331 16.4847 6.40078 16.2972L15.7928 6.86216C15.9749 6.67356 16.0757 6.42096 16.0735 6.15876C16.0712 5.89656 15.966 5.64575 15.7806 5.46034C15.5952 5.27494 15.3444 5.16977 15.0822 5.16749C14.82 5.16521 14.5674 5.266 14.3788 5.44816L4.98678 14.8832C4.70815 15.1617 4.48713 15.4925 4.33633 15.8565C4.18553 16.2205 4.10792 16.6107 4.10792 17.0047C4.10792 17.3987 4.18553 17.7888 4.33633 18.1528C4.48713 18.5168 4.70815 18.8476 4.98678 19.1262C5.5584 19.6716 6.31816 19.976 7.10828 19.976C7.8984 19.976 8.65816 19.6716 9.22978 19.1262L19.7778 8.53316C20.6958 7.59146 21.2058 6.32601 21.1974 5.01093C21.1889 3.69585 20.6627 2.43704 19.7328 1.50718C18.8028 0.577329 17.5439 0.051307 16.2288 0.043067C14.9137 0.0348271 13.6483 0.545033 12.7068 1.46316L2.15778 12.0552C0.844957 13.368 0.107422 15.1486 0.107422 17.0052C0.107422 18.8618 0.844957 20.6423 2.15778 21.9552C3.4706 23.268 5.25117 24.0055 7.10778 24.0055C8.96439 24.0055 10.745 23.268 12.0578 21.9552L22.9498 11.0192C23.0432 10.9262 23.1173 10.8158 23.1679 10.6941C23.2185 10.5724 23.2446 10.4419 23.2446 10.3102C23.2446 10.1784 23.2185 10.0479 23.1679 9.92624C23.1173 9.80457 23.0432 9.69409 22.9498 9.60116Z" fill="#374957"/>
</g>
<defs>
<clipPath id="clip0_250_3882">
<rect width="24" height="24" fill="white"/>
</clipPath>
</defs>
</svg>
