<svg width="172" height="172" viewBox="0 0 172 172" fill="none" xmlns="http://www.w3.org/2000/svg">
<path opacity="0.82" d="M152 0H20C8.95431 0 7.62939e-06 8.9543 7.62939e-06 20V152C7.62939e-06 163.046 8.95431 172 20 172H152C163.046 172 172 163.046 172 152V20C172 8.9543 163.046 0 152 0Z" fill="url(#paint0_linear_1_10)"/>
<g style="mix-blend-mode:screen">
<path d="M92.4809 -6.18359L-85.3281 321.128H-18.5908L132.813 -6.18359H92.4809Z" fill="url(#paint1_linear_1_10)" style="mix-blend-mode:screen"/>
<path d="M138.858 -3.34283L-10.1641 335.175L94.2581 334.817L171.369 -9.40625L138.858 -3.34283Z" fill="url(#paint2_linear_1_10)" style="mix-blend-mode:screen"/>
</g>
<defs>
<linearGradient id="paint0_linear_1_10" x1="86.0264" y1="0" x2="86.0264" y2="172.025" gradientUnits="userSpaceOnUse">
<stop stop-color="#F7FBFF"/>
<stop offset="0.77" stop-color="#CCE6FE"/>
</linearGradient>
<linearGradient id="paint1_linear_1_10" x1="110.986" y1="-55.0081" x2="75.5702" y2="280.164" gradientUnits="userSpaceOnUse">
<stop offset="0.106412" stop-color="white" stop-opacity="0.31"/>
<stop offset="0.748588" stop-color="white" stop-opacity="0"/>
</linearGradient>
<linearGradient id="paint2_linear_1_10" x1="-26" y1="6" x2="37" y2="158" gradientUnits="userSpaceOnUse">
<stop stop-color="white" stop-opacity="0.44"/>
<stop offset="1" stop-color="white" stop-opacity="0"/>
</linearGradient>
</defs>
</svg>
